#!OML:ASF H:\Dans Jumps\Project 1\Capture day 1\Session 1\subject.ASF
:FULLY-SPECIFIED
:DEGREES
450
root 0.163187 18.1772 -5.55084 22.7665 2.44663 -1.50791
lowerback 9.81591 1.2248 -2.07988
upperback 6.06994 1.46107 1.73755
thorax 0.710113 0.645964 2.8348
lowerneck -14.0905 -1.34734 -0.0199057
upperneck 23.8858 -2.07422 0.849292
head 9.91889 -0.849593 0.0415984
rclavicle -2.32578e-014 -7.95139e-016
rhumerus -36.029 -1.17826 -83.6303
rradius 46.3688
rwrist 19.9508
rhand -30.1179 -33.2183
rfingers 7.12502
rthumb -3.4313 -63.1705
lclavicle -2.32578e-014 -7.95139e-016
lhumerus -48.6387 -15.5482 91.0229
lradius 52.7988
lwrist 35.8737
lhand -32.0723 -9.37745
lfingers 7.12502
lthumb -5.31854 20.5358
rfemur -33.7012 -4.12008 21.5664
rtibia 24.8559
rfoot -6.86325 -4.32156
rtoes 20.1236
lfemur -34.666 4.49024 -19.0471
ltibia 25.373
lfoot -4.08483 0.764692
ltoes 5.79519
451
root 0.167486 18.1677 -5.53057 22.8129 2.4851 -1.56772
lowerback 9.79417 1.18406 -2.06128
upperback 6.08176 1.40932 1.75168
thorax 0.737705 0.619924 2.84433
lowerneck -14.1231 -1.33114 0.0366263
upperneck 24.0262 -2.05208 0.787028
head 9.97385 -0.840361 0.0123889
rclavicle -1.39149e-014 -3.37934e-015
rhumerus -35.9684 -1.3761 -83.3163
rradius 45.3926
rwrist 20.5855
rhand -29.9407 -33.0794
rfingers 7.12502
rthumb -3.26023 -63.0342
lclavicle -1.39149e-014 -3.37934e-015
lhumerus -48.7624 -15.3044 91.1699
lradius 51.4846
lwrist 35.5371
lhand -31.7476 -9.02358
lfingers 7.12502
lthumb -5.00504 20.8973
rfemur -33.5354 -4.07134 21.5858
rtibia 24.6194
rfoot -7.02951 -4.33426
rtoes 20.0778
lfemur -34.5184 4.58799 -19.0235
ltibia 25.1472
lfoot -4.30903 0.677348
ltoes 5.41048
452
root 0.172188 18.1568 -5.50959 22.8241 2.52045 -1.63253
lowerback 9.77474 1.13477 -2.03272
upperback 6.09532 1.34705 1.76733
thorax 0.766689 0.588844 2.85073
lowerneck -14.1726 -1.30166 0.0919111
upperneck 24.1961 -2.01001 0.718298
head 10.0427 -0.822627 -0.0166451
rclavicle -1.35174e-014 -7.55382e-015
rhumerus -35.9133 -1.50437 -83.0194
rradius 44.4999
rwrist 21.097
rhand -29.7501 -32.923
rfingers 7.12502
rthumb -3.07614 -62.8805
lclavicle -1.35174e-014 -7.55382e-015
lhumerus -48.8963 -15.074 91.3251
lradius 50.2218
lwrist 35.2589
lhand -31.4597 -8.66956
lfingers 7.12502
lthumb -4.72699 21.2577
rfemur -33.3397 -4.03825 21.6091
rtibia 24.4044
rfoot -7.22024 -4.31776
rtoes 19.9861
lfemur -34.3517 4.67249 -18.9831
ltibia 24.9688
lfoot -4.56354 0.592613
ltoes 5.03432
453
root 0.177004 18.145 -5.48832 22.8106 2.54646 -1.69825
lowerback 9.75481 1.08724 -1.99526
upperback 6.11315 1.2877 1.77685
thorax 0.800464 0.559438 2.84547
lowerneck -14.2372 -1.26727 0.149344
upperneck 24.3683 -1.96363 0.657104
head 10.1156 -0.801851 -0.0430253
rclavicle 2.18663e-015 8.34896e-015
rhumerus -35.8644 -1.60883 -82.7402
rradius 43.7005
rwrist 21.5107
rhand -29.5505 -32.7469
rfingers 7.12502
rthumb -2.88332 -62.7071
lclavicle 2.18663e-015 8.34896e-015
lhumerus -49.0191 -14.8938 91.4837
lradius 49.0074
lwrist 35.0025
lhand -31.1808 -8.29721
lfingers 7.12502
lthumb -4.4577 21.6359
rfemur -33.1325 -4.01169 21.6314
rtibia 24.2196
rfoot -7.42107 -4.27975
rtoes 19.8636
lfemur -34.1766 4.7534 -18.9347
ltibia 24.8352
lfoot -4.8412 0.511598
ltoes 4.68003
454
root 0.181591 18.1324 -5.46721 22.7849 2.55699 -1.75541
lowerback 9.72897 1.04623 -1.9636
upperback 6.13431 1.23646 1.77818
thorax 0.840435 0.533939 2.83431
lowerneck -14.311 -1.23162 0.208298
upperneck 24.5229 -1.91779 0.604013
head 10.1843 -0.780388 -0.0669245
rclavicle -9.54166e-015 -6.36111e-015
rhumerus -35.8257 -1.71213 -82.4745
rradius 43.0011
rwrist 21.8512
rhand -29.3464 -32.5663
rfingers 7.12502
rthumb -2.6863 -62.5292
lclavicle -9.54166e-015 -6.36111e-015
lhumerus -49.1217 -14.7684 91.6443
lradius 47.8484
lwrist 34.7311
lhand -30.8784 -7.90048
lfingers 7.12502
lthumb -4.16576 22.0385
rfemur -32.9346 -3.98359 21.6427
rtibia 24.0727
rfoot -7.62633 -4.23347
rtoes 19.7128
lfemur -34.0054 4.83966 -18.8931
ltibia 24.7402
lfoot -5.13071 0.430693
ltoes 4.37216
455
root 0.185803 18.1198 -5.44613 22.7547 2.54718 -1.80266
lowerback 9.69337 1.01275 -1.94617
upperback 6.14707 1.19414 1.77615
thorax 0.87618 0.512719 2.82685
lowerneck -14.3716 -1.19573 0.262158
upperneck 24.6629 -1.86975 0.54995
head 10.2454 -0.758691 -0.089894
rclavicle -1.66979e-014 -3.57812e-015
rhumerus -35.8294 -1.81224 -82.2128
rradius 42.4123
rwrist 22.1347
rhand -29.1453 -32.396
rfingers 7.12502
rthumb -2.49202 -62.3612
lclavicle -1.66979e-014 -3.57812e-015
lhumerus -49.2229 -14.6815 91.8121
lradius 46.7521
lwrist 34.4318
lhand -30.5299 -7.43813
lfingers 7.12502
lthumb -3.82922 22.5072
rfemur -32.7548 -3.95339 21.6438
rtibia 23.964
rfoot -7.8316 -4.18062
rtoes 19.5281
lfemur -33.8419 4.93695 -18.8624
ltibia 24.6753
lfoot -5.42323 0.349062
ltoes 4.12711
